<?xml version="1.0" encoding="utf-8"?><!-- Uploaded to: SVG Repo, www.svgrepo.com, Generator: SVG Repo Mixer Tools -->
<svg width="800px" height="800px" viewBox="0 0 400 400" fill="none" xmlns="http://www.w3.org/2000/svg">
<path d="M274.455 273.531C226.825 254.61 182.528 227.402 138.704 200.795" stroke="#000000" stroke-opacity="0.9" stroke-width="16" stroke-linecap="round" stroke-linejoin="round"/>
<path d="M275.398 273.216C206.982 285.143 137.394 301.384 72.8673 328.395" stroke="#000000" stroke-opacity="0.9" stroke-width="16" stroke-linecap="round" stroke-linejoin="round"/>
<path d="M137.139 198.599C117.479 242.022 96.0917 285.511 72.2398 326.201" stroke="#000000" stroke-opacity="0.9" stroke-width="16" stroke-linecap="round" stroke-linejoin="round"/>
<path d="M310.514 191.703C294.445 228.465 286.742 271.752 275.085 309.898" stroke="#000000" stroke-opacity="0.9" stroke-width="16" stroke-linecap="round" stroke-linejoin="round"/>
<path d="M274.77 315.228C234.25 307.045 180.394 303.734 138.703 303.734" stroke="#000000" stroke-opacity="0.9" stroke-width="16" stroke-linecap="round" stroke-linejoin="round"/>
<path d="M310.514 191.703C296.007 192.963 280.797 190.825 266.326 191.703" stroke="#000000" stroke-opacity="0.9" stroke-width="16" stroke-linecap="round" stroke-linejoin="round"/>
<path d="M266.326 191.703C256.313 204.863 241.257 226.936 230.88 239.671" stroke="#000000" stroke-opacity="0.9" stroke-width="16" stroke-linecap="round" stroke-linejoin="round"/>
<path d="M237.15 210.201C212.267 165.46 179.791 116.494 156.259 71" stroke="#000000" stroke-opacity="0.9" stroke-width="16" stroke-linecap="round" stroke-linejoin="round"/>
<path d="M138.759 191.703C137.909 150.266 147.347 108.875 156.258 71" stroke="#000000" stroke-opacity="0.9" stroke-width="16" stroke-linecap="round" stroke-linejoin="round"/>
<path d="M110.803 229.01C92.6316 211.935 71.8097 197.191 54.9983 178.849" stroke="#000000" stroke-opacity="0.9" stroke-width="16" stroke-linecap="round" stroke-linejoin="round"/>
<path d="M90.4258 270.71C78.3035 239.52 65.7798 208.2 57.5061 176.028" stroke="#000000" stroke-opacity="0.9" stroke-width="16" stroke-linecap="round" stroke-linejoin="round"/>
<path d="M318.979 194.837C328.284 207.124 336.615 219.976 345 232.772" stroke="#000000" stroke-opacity="0.9" stroke-width="16" stroke-linecap="round" stroke-linejoin="round"/>
<path d="M302.048 225.563C315.011 229.023 327.792 232.02 339.67 237.79" stroke="#000000" stroke-opacity="0.9" stroke-width="16" stroke-linecap="round" stroke-linejoin="round"/>
</svg>